<svg xmlns="http://www.w3.org/2000/svg" viewBox="36.29 7 607 94.5"><g fill="currentColor">
<path d="M 85.25 7.61 C 81.29 8.24, 73.58 10.39, 72.78 11.09 C 72.51 11.31, 71.84 11.5, 71.28 11.5 C 70.71 11.5, 69.46 11.99, 68.5 12.57 C 67.54 13.16, 65.52 14.31, 64.01 15.13 C 60.39 17.09, 59.12 18.06, 54.38 22.5 C 46.98 29.44, 42.65 36.23, 39.25 46.25 C 35.93 56.06, 35.47 62.85, 37.54 71.31 C 38.93 77, 41.8 83.78, 43.57 85.56 C 44.02 86.02, 44.95 87.22, 45.64 88.23 C 47.45 90.89, 52.17 94.52, 56.5 96.57 C 58.56 97.55, 61.15 98.77, 62.25 99.3 C 64.11 100.18, 65.85 100.26, 87.38 100.4 C 106.06 100.53, 110.56 100.43, 110.74 99.9 C 110.87 99.54, 111.22 97.45, 111.52 95.25 C 111.83 93.05, 112.26 89.91, 112.5 88.26 C 113.21 83.24, 113.92 83.5, 99.23 83.5 C 87.17 83.5, 86.45 83.45, 85.5 82.5 C 84.35 81.35, 84.33 80.99, 85.07 76.25 C 85.37 74.33, 85.67 72.3, 85.73 71.75 C 86.25 66.82, 86.69 65.43, 88.1 64.24 C 89.77 62.83, 90.54 62.78, 106 62.98 C 110.99 63.04, 115.31 62.87, 116.05 62.58 C 117.04 62.2, 117.44 61.61, 117.68 60.16 C 117.86 59.11, 118.26 56.9, 118.58 55.25 C 118.89 53.6, 119.17 50.79, 119.2 49 L 119.25 45.75 105.75 45.48 C 98.33 45.33, 92.22 45.16, 92.19 45.1 C 91.27 43.61, 91.07 41.81, 91.49 38.75 C 92.8 29.09, 93.65 26.25, 95.44 25.55 C 96.18 25.26, 102.54 24.98, 110.08 24.89 C 117.42 24.82, 123.58 24.59, 123.78 24.39 C 124.24 23.93, 124.85 20.49, 126.34 9.92 C 126.54 8.47, 126.4 7.99, 125.67 7.63 C 124.44 7.03, 89.06 7.01, 85.25 7.61 M 180.85 7.72 C 180.38 8.19, 179.88 9.17, 179.72 9.91 C 179.57 10.65, 179.11 12.67, 178.71 14.4 C 178.31 16.14, 178.08 17.73, 178.22 17.95 C 178.35 18.17, 178.22 19.22, 177.92 20.3 C 177.61 21.37, 177.31 22.7, 177.25 23.25 C 177.18 23.8, 177.1 24.41, 177.06 24.61 C 177.03 24.81, 176.36 25.3, 175.58 25.71 C 174.45 26.29, 171.52 26.45, 160.99 26.48 C 152.93 26.51, 147.59 26.72, 147.21 27.03 C 146.88 27.31, 146.48 28.26, 146.32 29.14 C 146.17 30.03, 145.77 32.21, 145.45 34 C 145.13 35.79, 144.84 38.71, 144.81 40.5 L 144.75 43.75 157.92 44 C 171.08 44.25, 171.09 44.25, 172.06 45.45 C 172.87 46.45, 172.99 47.15, 172.74 49.7 C 172.58 51.38, 172.26 53.54, 172.03 54.5 C 171.79 55.46, 171.23 57.83, 170.77 59.75 C 170.31 61.68, 169.57 63.53, 169.12 63.88 C 168.52 64.34, 164.82 64.5, 154.71 64.5 L 141.12 64.5 140.31 65.73 C 139.86 66.41, 139.5 67.52, 139.5 68.2 C 139.5 68.88, 139.27 70.05, 138.98 70.8 C 138.7 71.55, 138.38 73.19, 138.27 74.46 C 138.17 75.72, 137.92 77.8, 137.73 79.09 L 137.38 81.43 139.31 81.89 C 140.38 82.14, 146.43 82.41, 152.75 82.47 C 165.34 82.6, 165.63 82.67, 166.27 85.61 C 166.46 86.44, 166.38 87.6, 166.11 88.18 C 165.33 89.88, 164.5 95.05, 164.5 98.21 L 164.5 101.12 168.77 100.84 C 172.43 100.61, 173.17 100.4, 174 99.41 C 174.53 98.77, 174.97 98.09, 174.98 97.9 C 174.99 97.71, 175.73 96.5, 176.63 95.22 C 177.52 93.94, 178.48 92.53, 178.75 92.08 C 179.03 91.63, 180.71 89.01, 182.5 86.26 C 184.29 83.51, 185.86 81.04, 186 80.76 C 186.3 80.14, 190.4 73.82, 193.06 69.86 C 194.13 68.27, 195 66.82, 195 66.64 C 195 66.36, 199.94 58.69, 202.56 54.9 C 203.08 54.15, 203.5 53.42, 203.5 53.27 C 203.5 53.12, 204.91 50.9, 206.63 48.35 C 210.64 42.4, 214.11 37.16, 214.75 36.1 C 215.03 35.65, 216.2 33.76, 217.37 31.92 C 220.78 26.52, 220.8 26.44, 219.33 23.93 C 217.02 20.01, 211.21 14.84, 206.2 12.25 C 203.69 10.95, 200.77 9.7, 199.7 9.47 C 198.63 9.24, 196.51 8.68, 195 8.23 C 193.49 7.77, 189.87 7.28, 186.97 7.14 C 182.45 6.92, 181.57 7, 180.85 7.72 M 251.75 7.31 C 242.98 9.58, 239.58 12.39, 232.5 23.23 C 230.71 25.96, 227.17 31.34, 224.62 35.17 C 219.24 43.25, 218.84 44.23, 220.73 44.7 C 221.46 44.88, 227.72 45.02, 234.65 45 C 256.23 44.95, 255.5 44.92, 255.82 45.76 C 256.15 46.61, 254.98 49.85, 251.64 57.38 C 248.22 65.06, 250.23 64.5, 226.1 64.5 C 209.77 64.5, 205.94 64.63, 205.38 65.19 C 205.01 65.57, 202.8 68.83, 200.47 72.45 C 198.15 76.06, 193.72 82.86, 190.62 87.56 C 187.52 92.25, 184.41 97.07, 183.72 98.26 L 182.44 100.43 183.5 101 C 184.22 101.39, 188.38 101.52, 196.83 101.41 L 209.1 101.25 210.08 100 C 210.62 99.31, 212.64 96.05, 214.58 92.75 C 216.52 89.45, 218.66 86.24, 219.33 85.63 L 220.56 84.5 239.9 84.51 C 250.54 84.51, 259.56 84.71, 259.94 84.95 C 260.36 85.22, 261.09 88.02, 261.8 92.07 C 263.33 100.89, 263.31 100.83, 264.62 101.18 C 265.24 101.35, 275 101.49, 286.31 101.49 C 302.99 101.5, 306.98 101.37, 307.44 100.82 C 308.12 100, 309.52 93.44, 311.29 82.75 C 312.02 78.35, 313.03 72.39, 313.53 69.5 C 314.04 66.61, 315.03 60.88, 315.74 56.75 C 317.19 48.29, 317.82 46, 318.66 46 C 319.31 46.01, 319.21 45.86, 325.67 57 C 336.25 75.26, 339.18 80.34, 339.96 81.75 C 340.78 83.24, 342.6 86.39, 347.91 95.5 C 349.43 98.11, 351.01 100.53, 351.43 100.88 C 351.99 101.33, 355.05 101.5, 362.79 101.5 C 375.55 101.5, 375.21 101.64, 376.01 96 C 376.31 93.94, 376.86 90.68, 377.24 88.75 C 377.62 86.83, 378.42 82.44, 379 79 C 379.58 75.56, 380.49 70.39, 381.01 67.5 C 381.53 64.61, 382.42 59.55, 382.99 56.25 C 383.56 52.95, 384.36 48.68, 384.77 46.75 C 385.18 44.83, 385.73 41.68, 386 39.75 C 386.26 37.83, 387.04 33.21, 387.73 29.5 C 390.04 17.04, 391.18 10.26, 391.22 8.75 L 391.25 7.25 380.05 7.25 C 370.61 7.25, 368.8 7.37, 368.47 8 C 368.26 8.41, 367.6 11.56, 367 15 C 366.41 18.44, 365.51 23.5, 365.01 26.25 C 364.51 29, 363.72 33.5, 363.27 36.25 C 362.81 39, 362 43.5, 361.47 46.25 C 360.94 49, 360.27 53.05, 359.96 55.24 C 359.39 59.42, 358.38 62.5, 357.58 62.5 C 356.89 62.5, 354.54 58.62, 343.35 39 C 341.7 36.11, 338.9 31.28, 337.12 28.25 C 335.34 25.23, 332.98 21.18, 331.87 19.25 C 326.73 10.3, 325.19 7.87, 324.36 7.43 C 323.3 6.86, 301.77 7.06, 301.19 7.64 C 300.98 7.86, 300.54 9.88, 300.21 12.14 C 299.89 14.4, 299.26 18.16, 298.81 20.5 C 298.35 22.84, 297.56 27.23, 297.03 30.25 C 295.59 38.53, 294 47.33, 293.25 51.25 C 292.88 53.18, 292.44 55.65, 292.28 56.75 C 290.74 67.27, 288.1 80, 287.45 80 C 286.77 80, 286.2 78.38, 285.01 73 C 284.43 70.39, 283.52 66.34, 282.99 64 C 282.06 59.9, 280.63 53.08, 280.16 50.5 C 280.04 49.81, 279.52 47.45, 279 45.25 C 278.49 43.05, 277.6 39, 277.01 36.25 C 276.43 33.5, 275.5 29.11, 274.94 26.5 C 271.58 10.7, 268.8 7.58, 257.77 7.22 C 255.01 7.12, 252.3 7.17, 251.75 7.31 M 399.28 8.14 C 398.86 8.77, 398.29 10.96, 398 13.02 C 397.71 15.07, 397.16 18.44, 396.79 20.5 C 396.41 22.56, 395.62 26.95, 395.04 30.25 C 394.45 33.55, 393.3 39.96, 392.46 44.5 C 391.63 49.04, 390.74 54.21, 390.47 56 C 389.74 61, 388.05 70.36, 387.16 74.25 C 386.72 76.18, 386.26 80.6, 386.12 84.08 C 385.9 90.08, 385.95 90.55, 387.15 93.08 C 388.67 96.28, 390.33 97.92, 394 99.82 L 396.75 101.25 429.79 101.41 C 456.91 101.54, 462.92 101.44, 463.38 100.89 C 463.88 100.29, 464.69 96.63, 466.49 86.85 C 466.84 84.98, 466.96 83.29, 466.77 83.1 C 466.58 82.91, 454.57 82.64, 440.08 82.5 C 420.41 82.31, 413.48 82.09, 412.67 81.63 C 410.69 80.5, 410.44 78.38, 411.42 71.37 C 411.91 67.86, 412.58 64.72, 412.92 64.38 C 413.38 63.92, 420.28 63.77, 441.39 63.75 C 456.71 63.73, 469.52 63.55, 469.84 63.35 C 470.17 63.15, 470.77 61.35, 471.18 59.37 C 472.51 52.92, 473.5 47.28, 473.5 46.13 L 473.5 45 445.79 45 C 430.55 45, 417.73 44.86, 417.29 44.7 C 416.26 44.3, 416.3 42.97, 417.51 36.03 C 418.83 28.49, 419.35 26.66, 420.3 26.3 C 420.73 26.14, 433.28 26, 448.18 26 C 477.54 26, 477.5 26, 477.5 23.33 C 477.5 22.71, 477.83 20.96, 478.23 19.42 C 478.63 17.89, 479.23 14.68, 479.58 12.29 C 480.12 8.54, 480.11 7.87, 479.48 7.48 C 479.05 7.21, 462.57 7.01, 439.39 7.01 L 400.02 7 399.28 8.14 M 488.36 7.88 C 487.63 8.69, 487.05 11.11, 486 17.75 C 485.37 21.75, 484.59 26.25, 483.24 33.75 C 482.54 37.6, 481.51 43.34, 480.96 46.5 C 480.4 49.66, 479.62 53.94, 479.21 56 C 478.81 58.06, 478.13 61.89, 477.71 64.5 C 475.92 75.49, 475.58 77.36, 475.01 79.46 C 474.69 80.67, 474.4 83.37, 474.38 85.46 C 474.31 92.21, 477.1 96.9, 483.08 100.09 L 485.25 101.25 517.75 101.41 C 538.12 101.51, 550.73 101.39, 551.54 101.08 C 552.66 100.65, 552.9 100.13, 553.45 96.92 C 553.8 94.9, 554.41 91.52, 554.83 89.42 C 555.24 87.31, 555.5 84.94, 555.41 84.17 L 555.25 82.75 528.98 82.5 C 505.1 82.27, 502.58 82.17, 501.38 81.38 C 499.6 80.22, 499.23 77.94, 499.98 72.85 C 500.31 70.59, 500.7 67.92, 500.84 66.89 C 500.99 65.87, 501.41 64.79, 501.78 64.48 C 502.26 64.08, 510.56 63.89, 530.45 63.83 C 549.62 63.78, 558.62 63.58, 558.99 63.21 C 559.28 62.92, 559.96 60.11, 560.49 56.96 C 561.03 53.82, 561.68 50.13, 561.94 48.75 C 562.26 47.07, 562.25 46.05, 561.9 45.63 C 561.49 45.14, 555.33 45, 534.06 44.99 C 519.04 44.99, 506.44 44.79, 506.05 44.54 C 505.5 44.2, 505.43 43.3, 505.69 40.42 C 506.13 35.59, 507.78 27.62, 508.53 26.71 C 509.03 26.11, 513.34 26, 536.19 25.99 C 551.07 25.99, 563.73 25.86, 564.31 25.7 C 565.78 25.31, 566.33 23.87, 567.47 17.37 C 568.01 14.28, 568.61 10.99, 568.8 10.05 C 569.46 6.85, 571.4 7, 528.23 7 C 491.55 7, 489.11 7.05, 488.36 7.88 M 577.05 7.46 C 576.67 7.7, 576.2 8.88, 576 10.07 C 574.74 17.78, 573.85 22.93, 572.96 27.75 C 571 38.33, 570.56 40.77, 570.28 42.75 C 569.91 45.31, 568.17 54.72, 567.23 59.25 C 566.83 61.18, 566.29 64.21, 566.02 66 C 565.76 67.79, 564.97 72.6, 564.27 76.68 C 563.22 82.81, 563.08 84.64, 563.47 87.08 C 564.42 92.93, 567.62 97.08, 573.32 99.83 L 576.25 101.25 607.85 101.25 C 629.14 101.25, 639.62 101.08, 639.97 100.73 C 640.26 100.44, 640.84 98.19, 641.26 95.73 C 641.69 93.27, 642.39 89.49, 642.82 87.33 C 643.27 85.08, 643.42 83.22, 643.17 82.97 C 642.92 82.72, 631.21 82.46, 617.12 82.39 L 591.52 82.25 590.14 80.86 C 588.09 78.82, 588.16 77.25, 590.98 62 C 592.37 54.47, 593.76 46.69, 595 39.5 C 596.64 29.98, 597.87 23.19, 598.81 18.5 C 600.02 12.5, 600.26 7.98, 599.42 7.44 C 598.53 6.88, 577.95 6.89, 577.05 7.46" fill-rule="evenodd"/>
</g></svg>
